<svg width="520" height="380" viewBox="0 0 520 380" fill="none" xmlns="http://www.w3.org/2000/svg">
<path fill-rule="evenodd" clip-rule="evenodd" d="M83 178.5H109.5C110.605 178.5 111.5 177.605 111.5 176.5V146.5C111.5 145.395 110.605 144.5 109.5 144.5H83C81.8954 144.5 81 143.605 81 142.5V60C81 58.8954 81.8954 58 83 58H437C438.105 58 439 58.8954 439 60V142.5C439 143.605 438.105 144.5 437 144.5H371.5C370.395 144.5 369.5 143.605 369.5 142.5V120C369.5 118.895 370.395 118 371.5 118H411.5C412.605 118 413.5 117.105 413.5 116V86.5C413.5 85.3954 412.605 84.5 411.5 84.5H348C346.895 84.5 346 85.3954 346 86.5V176.5C346 177.605 346.895 178.5 348 178.5H437C438.105 178.5 439 179.395 439 180.5V203C439 204.105 438.105 205 437 205H322C320.895 205 320 204.105 320 203V86.5C320 85.3954 319.105 84.5 318 84.5H296C294.895 84.5 294 85.3954 294 86.5V235.5C294 236.605 294.895 237.5 296 237.5H437C438.105 237.5 439 238.395 439 239.5V320.5C439 321.605 438.105 322.5 437 322.5H83C81.8954 322.5 81 321.605 81 320.5V239.5C81 238.395 81.8954 237.5 83 237.5H162.5C163.605 237.5 164.5 236.605 164.5 235.5V86.5C164.5 85.3954 163.605 84.5 162.5 84.5H108.5C107.395 84.5 106.5 85.3954 106.5 86.5V115.5C106.5 116.605 107.395 117.5 108.5 117.5H136.5C137.605 117.5 138.5 118.395 138.5 119.5V202C138.5 203.105 137.605 204 136.5 204H83C81.8954 204 81 203.105 81 202V180.5C81 179.395 81.8954 178.5 83 178.5ZM191.5 83.5H212.5C213.605 83.5 214.5 84.4155 214.5 85.52V293.48C214.5 294.585 213.591 295.5 212.487 295.5H108.013C106.909 295.5 106 294.605 106 293.5V265C106 263.895 106.904 263 108.009 263H187.491C188.596 263 189.5 262.086 189.5 260.981V85.5187C189.5 84.4141 190.395 83.5 191.5 83.5ZM243.005 83.5H265.5C266.605 83.5 267.5 84.3954 267.5 85.5V259.52C267.5 260.617 268.383 261.509 269.479 261.52L411.521 262.98C412.617 262.991 413.5 263.883 413.5 264.98V295C413.5 296.105 412.605 297 411.5 297H243.495C242.393 297 241.498 296.107 241.495 295.005L241.005 85.5047C241.002 84.3983 241.898 83.5 243.005 83.5Z" fill="white"/>
</svg>
