<svg width="818" height="705" viewBox="0 0 818 705" fill="none" xmlns="http://www.w3.org/2000/svg">
<path d="M275 492H246.5V560.5C246.5 576.5 260.5 613.5 304.5 613.5C347.479 613.5 361 573 361 560.5V492H334.5V559.5C334.5 565 326.5 585.5 304.5 585.5C283.476 585.5 275 567 275 560.5V492Z" fill="white"/>
<path d="M111 613.5V491.5H138.5V586.5H193C197.418 586.5 201 590.082 201 594.5V613.5H111Z" fill="white"/>
<path d="M464 614.5L414 493.5V491.5H442L474 563.5L505.5 491.5H546L548.5 493.5V509.5C547 512 543.5 516 540.5 517H524L514 540H540.5C550.5 548 546 557.5 546 559.5C546 561.1 542.333 563.833 540.5 565H502L492.5 586.5L543 588C547.265 589.19 547.708 590.916 548.498 593.992L548.5 594V612C548.369 613.71 547.715 614.166 546 614.5H464Z" fill="white"/>
<path d="M602 491.5V614.5H629.5L630.5 546.5L684.5 614.5H706.5V491.5H679V559.5L625 491.5H602Z" fill="white"/>
<path fill-rule="evenodd" clip-rule="evenodd" d="M236 280.5H262.5C263.605 280.5 264.5 279.605 264.5 278.5V248.5C264.5 247.395 263.605 246.5 262.5 246.5H236C234.895 246.5 234 245.605 234 244.5V162C234 160.895 234.895 160 236 160H590C591.105 160 592 160.895 592 162V244.5C592 245.605 591.105 246.5 590 246.5H524.5C523.395 246.5 522.5 245.605 522.5 244.5V222C522.5 220.895 523.395 220 524.5 220H564.5C565.605 220 566.5 219.105 566.5 218V188.5C566.5 187.395 565.605 186.5 564.5 186.5H501C499.895 186.5 499 187.395 499 188.5V278.5C499 279.605 499.895 280.5 501 280.5H590C591.105 280.5 592 281.395 592 282.5V305C592 306.105 591.105 307 590 307H475C473.895 307 473 306.105 473 305V188.5C473 187.395 472.105 186.5 471 186.5H449C447.895 186.5 447 187.395 447 188.5V337.5C447 338.605 447.895 339.5 449 339.5H590C591.105 339.5 592 340.395 592 341.5V422.5C592 423.605 591.105 424.5 590 424.5H236C234.895 424.5 234 423.605 234 422.5V341.5C234 340.395 234.895 339.5 236 339.5H315.5C316.605 339.5 317.5 338.605 317.5 337.5V188.5C317.5 187.395 316.605 186.5 315.5 186.5H261.5C260.395 186.5 259.5 187.395 259.5 188.5V217.5C259.5 218.605 260.395 219.5 261.5 219.5H289.5C290.605 219.5 291.5 220.395 291.5 221.5V304C291.5 305.105 290.605 306 289.5 306H236C234.895 306 234 305.105 234 304V282.5C234 281.395 234.895 280.5 236 280.5ZM344.5 185.5H365.5C366.605 185.5 367.5 186.415 367.5 187.52V395.48C367.5 396.585 366.591 397.5 365.487 397.5H261.013C259.909 397.5 259 396.605 259 395.5V367C259 365.895 259.904 365 261.009 365H340.491C341.596 365 342.5 364.086 342.5 362.981V187.519C342.5 186.414 343.395 185.5 344.5 185.5ZM396.005 185.5H418.5C419.605 185.5 420.5 186.395 420.5 187.5V361.52C420.5 362.617 421.383 363.509 422.479 363.52L564.521 364.98C565.617 364.991 566.5 365.883 566.5 366.98V397C566.5 398.105 565.605 399 564.5 399H396.495C395.393 399 394.498 398.107 394.495 397.005L394.005 187.505C394.002 186.398 394.898 185.5 396.005 185.5Z" fill="white"/>
</svg>
